<svg width="69" height="22" viewBox="0 0 69 22" fill="none" xmlns="http://www.w3.org/2000/svg">
<path d="M7.67488 16L4.75907 10.7076H3.94025V16H0.525154V1.98015H6.25692C7.362 1.98015 8.30065 2.1732 9.07287 2.55932C9.85841 2.94543 10.4442 3.47799 10.8303 4.15702C11.2165 4.82273 11.4095 5.56832 11.4095 6.3938C11.4095 7.3258 11.1432 8.15794 10.6107 8.89022C10.0914 9.6225 9.31918 10.1418 8.29399 10.448L11.5293 16H7.67488ZM3.94025 8.29108H6.0572C6.68297 8.29108 7.14897 8.13797 7.4552 7.83174C7.77474 7.52551 7.93451 7.0928 7.93451 6.5336C7.93451 6.00104 7.77474 5.58164 7.4552 5.27541C7.14897 4.96919 6.68297 4.81607 6.0572 4.81607H3.94025V8.29108ZM18.626 16.1598C17.5343 16.1598 16.549 15.9268 15.6703 15.4608C14.8048 14.9948 14.1192 14.3291 13.6132 13.4636C13.1206 12.5982 12.8743 11.5863 12.8743 10.428C12.8743 9.28299 13.1273 8.27776 13.6332 7.41234C14.1391 6.5336 14.8315 5.86124 15.7102 5.39524C16.5889 4.92924 17.5742 4.69624 18.666 4.69624C19.7577 4.69624 20.743 4.92924 21.6217 5.39524C22.5004 5.86124 23.1928 6.5336 23.6987 7.41234C24.2047 8.27776 24.4576 9.28299 24.4576 10.428C24.4576 11.573 24.198 12.5849 23.6788 13.4636C23.1728 14.3291 22.4738 14.9948 21.5818 15.4608C20.703 15.9268 19.7178 16.1598 18.626 16.1598ZM18.626 13.204C19.2784 13.204 19.831 12.9644 20.2836 12.4851C20.7496 12.0057 20.9826 11.3201 20.9826 10.428C20.9826 9.53596 20.7563 8.85027 20.3036 8.37096C19.8642 7.89165 19.3184 7.652 18.666 7.652C18.0002 7.652 17.4477 7.89165 17.0083 8.37096C16.569 8.83696 16.3493 9.52264 16.3493 10.428C16.3493 11.3201 16.5623 12.0057 16.9884 12.4851C17.4277 12.9644 17.9736 13.204 18.626 13.204ZM29.6845 1.22124V16H26.2694V1.22124H29.6845ZM35.5745 1.22124V16H32.1594V1.22124H35.5745ZM39.7669 3.69768C39.1677 3.69768 38.6751 3.52459 38.289 3.17843C37.9162 2.81894 37.7298 2.37957 37.7298 1.86032C37.7298 1.32775 37.9162 0.888384 38.289 0.542214C38.6751 0.182731 39.1677 0.00298896 39.7669 0.00298896C40.3527 0.00298896 40.832 0.182731 41.2048 0.542214C41.5909 0.888384 41.784 1.32775 41.784 1.86032C41.784 2.37957 41.5909 2.81894 41.2048 3.17843C40.832 3.52459 40.3527 3.69768 39.7669 3.69768ZM41.4644 4.85602V16H38.0494V4.85602H41.4644ZM50.7296 4.73619C52.0344 4.73619 53.0729 5.16224 53.8451 6.01435C54.6306 6.85315 55.0234 8.01148 55.0234 9.48936V16H51.6283V9.9487C51.6283 9.2031 51.4352 8.62393 51.0491 8.21119C50.663 7.79845 50.1437 7.59208 49.4913 7.59208C48.8389 7.59208 48.3197 7.79845 47.9336 8.21119C47.5475 8.62393 47.3544 9.2031 47.3544 9.9487V16H43.9393V4.85602H47.3544V6.33389C47.7006 5.84127 48.1666 5.45515 48.7524 5.17556C49.3382 4.88264 49.9973 4.73619 50.7296 4.73619ZM61.6305 4.69624C62.416 4.69624 63.1017 4.85601 63.6875 5.17556C64.2866 5.4951 64.746 5.91449 65.0655 6.43375V4.85602H68.4806V15.98C68.4806 17.0052 68.2742 17.9306 67.8615 18.756C67.4621 19.5948 66.843 20.2605 66.0042 20.7532C65.1787 21.2458 64.1468 21.4921 62.9086 21.4921C61.2577 21.4921 59.9196 21.0993 58.8944 20.3138C57.8692 19.5416 57.2834 18.4898 57.1369 17.1583H60.5121C60.6186 17.5844 60.8716 17.9172 61.271 18.1569C61.6704 18.4099 62.163 18.5364 62.7489 18.5364C63.4545 18.5364 64.0137 18.33 64.4264 17.9172C64.8525 17.5178 65.0655 16.8721 65.0655 15.98V14.4023C64.7327 14.9215 64.2733 15.3476 63.6875 15.6805C63.1017 16 62.416 16.1598 61.6305 16.1598C60.7118 16.1598 59.8796 15.9268 59.134 15.4608C58.3885 14.9815 57.796 14.3091 57.3566 13.4437C56.9305 12.5649 56.7175 11.5531 56.7175 10.408C56.7175 9.26302 56.9305 8.25779 57.3566 7.39237C57.796 6.52695 58.3885 5.86124 59.134 5.39524C59.8796 4.92924 60.7118 4.69624 61.6305 4.69624ZM65.0655 10.428C65.0655 9.5759 64.8259 8.90353 64.3466 8.41091C63.8806 7.91828 63.3081 7.67197 62.629 7.67197C61.95 7.67197 61.3708 7.91828 60.8915 8.41091C60.4255 8.89022 60.1925 9.55593 60.1925 10.408C60.1925 11.2601 60.4255 11.9392 60.8915 12.4451C61.3708 12.9377 61.95 13.184 62.629 13.184C63.3081 13.184 63.8806 12.9377 64.3466 12.4451C64.8259 11.9525 65.0655 11.2801 65.0655 10.428Z" fill="currentColor"/>
</svg>
