<svg width="25" height="24" viewBox="0 0 25 24" fill="none" xmlns="http://www.w3.org/2000/svg">
<path fill-rule="evenodd" clip-rule="evenodd" d="M12.0761 1.45113C12.3104 1.21681 12.6903 1.21681 12.9246 1.45113L17.4246 5.95113C17.6589 6.18544 17.6589 6.56534 17.4246 6.79965C17.1903 7.03397 16.8104 7.03397 16.5761 6.79965L13.1001 3.32372V13.1254C13.1001 13.4568 12.8315 13.7254 12.5001 13.7254C12.1688 13.7254 11.9001 13.4568 11.9001 13.1254V3.32412L8.42461 6.79965C8.19029 7.03397 7.81039 7.03397 7.57608 6.79965C7.34176 6.56534 7.34176 6.18544 7.57608 5.95113L12.0761 1.45113ZM4.62515 11.3504C4.3352 11.3504 4.10015 11.5854 4.10015 11.8754V21.0004C4.10015 21.2903 4.3352 21.5254 4.62515 21.5254H20.3751C20.6651 21.5254 20.9001 21.2903 20.9001 21.0004V11.8754C20.9001 11.5854 20.6651 11.3504 20.3751 11.3504H18.1251C17.7938 11.3504 17.5251 11.0818 17.5251 10.7504C17.5251 10.419 17.7938 10.1504 18.1251 10.1504H20.3751C21.3278 10.1504 22.1001 10.9227 22.1001 11.8754V21.0004C22.1001 21.9531 21.3278 22.7254 20.3751 22.7254H4.62515C3.67246 22.7254 2.90015 21.9531 2.90015 21.0004V11.8754C2.90015 10.9227 3.67246 10.1504 4.62515 10.1504H6.87515C7.20652 10.1504 7.47515 10.419 7.47515 10.7504C7.47515 11.0818 7.20652 11.3504 6.87515 11.3504H4.62515Z" fill="#101010"/>
</svg>
