<svg width="24" height="24" viewBox="0 0 24 24" fill="none" xmlns="http://www.w3.org/2000/svg">
<path d="M6.80444 19C6.29535 19 5.86737 18.8269 5.5205 18.4807C5.1735 18.1347 5 17.7077 5 17.1998V6.81493C5 6.30704 5.1735 5.88007 5.5205 5.53401C5.86737 5.18782 6.29535 5.01473 6.80444 5.01473H13.8824L12.5682 6.32585H6.80444C6.68178 6.32585 6.56941 6.37677 6.46732 6.47861C6.36524 6.58046 6.3142 6.69256 6.3142 6.81493V17.1998C6.3142 17.3222 6.36524 17.4343 6.46732 17.5361C6.56941 17.638 6.68178 17.6889 6.80444 17.6889H17.2137C17.3364 17.6889 17.4487 17.638 17.5508 17.5361C17.6529 17.4343 17.7039 17.3222 17.7039 17.1998V11.3886L19.0181 10.0774V17.1998C19.0181 17.7077 18.8446 18.1347 18.4976 18.4807C18.1508 18.8269 17.7228 19 17.2137 19H6.80444ZM10.1572 13.8548V11.3991L17.2016 4.37148C17.3424 4.23084 17.4891 4.13376 17.6416 4.08026C17.7941 4.02675 17.9518 4 18.1145 4C18.2738 4 18.4364 4.03006 18.6022 4.09019C18.7681 4.15032 18.919 4.2456 19.055 4.37605L19.6018 4.89553C19.7395 5.03618 19.8404 5.19014 19.9042 5.35741C19.9681 5.52467 20 5.69373 20 5.86457C20 6.03555 19.9712 6.1991 19.9136 6.35525C19.8561 6.51139 19.7557 6.65846 19.6125 6.79646L12.5421 13.8548H10.1572ZM11.4714 12.5437H11.983L17.053 7.50546L16.7971 7.23052L16.4909 6.94466L11.4714 11.9523V12.5437Z" fill="#555555"/>
</svg>
